<?xml version="1.0" encoding="UTF-8" standalone="no"?>
<!-- Created with Inkscape (http://www.inkscape.org/) -->

<svg
   width="150"
   height="150"
   viewBox="0 0 150 150"
   version="1.1"
   id="svg5"
   inkscape:version="1.1.2 (b8e25be8, 2022-02-05)"
   sodipodi:docname="capture.svg"
   inkscape:export-filename="/Users/nelson/Projects/gambit/assets/hints/capture.png"
   inkscape:export-xdpi="96"
   inkscape:export-ydpi="96"
   xmlns:inkscape="http://www.inkscape.org/namespaces/inkscape"
   xmlns:sodipodi="http://sodipodi.sourceforge.net/DTD/sodipodi-0.dtd"
   xmlns="http://www.w3.org/2000/svg"
   xmlns:svg="http://www.w3.org/2000/svg">
  <sodipodi:namedview
     id="namedview7"
     pagecolor="#ffffff"
     bordercolor="#666666"
     borderopacity="1.0"
     inkscape:pageshadow="2"
     inkscape:pageopacity="0.0"
     inkscape:pagecheckerboard="0"
     inkscape:document-units="mm"
     showgrid="false"
     units="px"
     inkscape:zoom="2.6451132"
     inkscape:cx="78.446548"
     inkscape:cy="72.20863"
     inkscape:window-width="1312"
     inkscape:window-height="916"
     inkscape:window-x="76"
     inkscape:window-y="38"
     inkscape:window-maximized="0"
     inkscape:current-layer="layer1" />
  <defs
     id="defs2" />
  <g
     inkscape:label="donut"
     inkscape:groupmode="layer"
     id="layer1"
     style="display:inline">
    <path
       id="path846"
       style="fill-opacity:0.2;stroke-width:2.07206;fill:#000000"
       d="M 75 0 A 75 75 0 0 0 0 75 A 75 75 0 0 0 75 150 A 75 75 0 0 0 150 75 A 75 75 0 0 0 75 0 z M 75 10 A 65 65 0 0 1 140 75 A 65 65 0 0 1 75 140 A 65 65 0 0 1 10 75 A 65 65 0 0 1 75 10 z "
       inkscape:export-filename="/Users/nelson/Projects/gambit/assets/hints/capture.png"
       inkscape:export-xdpi="96"
       inkscape:export-ydpi="96" />
  </g>
</svg>
